<?xml version="1.0" encoding="iso-8859-1"?>
<!-- Uploaded to: SVG Repo, www.svgrepo.com, Generator: SVG Repo Mixer Tools -->
<svg height="120px" width="120px" version="1.1" id="Layer_1" xmlns="http://www.w3.org/2000/svg" xmlns:xlink="http://www.w3.org/1999/xlink" 
	 viewBox="0 0 512 512" xml:space="preserve">
<circle style="fill:#FAD24D;" cx="256" cy="256" r="256"/>
<path style="fill:#FF5B62;" d="M219.236,194.345c-67.632,0-122.458,47.87-122.458,106.922c0,30.194,14.338,57.462,37.389,76.905
	c-27.89,23.219-55.089,21.205-55.089,21.205c25.753,20.079,67.299,9.911,92.843,0.536c14.557,5.331,30.541,8.277,47.316,8.277
	c67.632,0,122.458-47.87,122.458-106.922S286.869,194.345,219.236,194.345z"/>
<path style="fill:#ED4C54;" d="M219.236,194.345c-11.516,0-22.658,1.391-33.224,3.985c14.118,45.438,61.678,78.86,118.187,78.86
	c11.516,0,22.659-1.389,33.224-3.985C323.306,227.766,275.745,194.345,219.236,194.345z"/>
<path style="fill:#21D0C3;" d="M308.357,56.587c67.632,0,122.458,47.871,122.458,106.922c0,30.194-14.338,57.462-37.389,76.905
	c27.89,23.22,55.089,21.205,55.089,21.205c-25.753,20.079-67.299,9.911-92.843,0.536c-14.557,5.331-30.541,8.277-47.316,8.277
	c-67.632,0-122.458-47.87-122.458-106.923S240.725,56.587,308.357,56.587z"/>
<g>
	<path style="fill:#FFFFFF;" d="M243.127,134.883h122.155c5.5,0,5.5,8.316,0,8.316H243.127
		C237.627,143.198,237.627,134.883,243.127,134.883z M241.45,188.943h72.52c3.265,0,3.265,8.316,0,8.316h-72.52
		C238.186,197.259,238.186,188.943,241.45,188.943z M243.127,161.913h122.155c5.5,0,5.5,8.316,0,8.316H243.127
		C237.627,170.229,237.627,161.913,243.127,161.913z"/>
	<path style="fill:#FFFFFF;" d="M157.62,288.482h122.155c5.5,0,5.5,8.316,0,8.316H157.62
		C152.12,296.797,152.12,288.482,157.62,288.482z M155.943,342.542h72.52c3.265,0,3.265,8.316,0,8.316h-72.52
		C152.679,350.858,152.679,342.542,155.943,342.542z M157.62,315.512h122.155c5.5,0,5.5,8.316,0,8.316H157.62
		C152.12,323.828,152.12,315.512,157.62,315.512z"/>
</g>
</svg>